<?xml version="1.0" standalone="no"?>
<!DOCTYPE svg PUBLIC "-//W3C//DTD SVG 20010904//EN"
 "http://www.w3.org/TR/2001/REC-SVG-20010904/DTD/svg10.dtd">
<svg version="1.0" xmlns="http://www.w3.org/2000/svg"
 width="500.000000pt" height="500.000000pt" viewBox="0 0 500.000000 500.000000"
 preserveAspectRatio="xMidYMid meet">
<metadata>
Created by potrace 1.13, written by Peter Selinger 2001-2015
</metadata>
<g transform="translate(0.000000,500.000000) scale(0.100000,-0.100000)"
fill="#000000" stroke="none">
<path d="M10 2500 l0 -2500 2495 0 2495 0 0 2500 0 2500 -2495 0 -2495 0 0
-2500z m916 935 c-4 -25 -18 -77 -32 -117 -13 -39 -24 -73 -24 -75 0 -1 129
-4 288 -5 l287 -3 3 -67 3 -68 -161 0 -160 0 0 -240 0 -240 183 -2 182 -3 0
-70 0 -70 -185 0 -185 0 -3 -58 -3 -58 118 -132 c191 -213 173 -179 173 -319
l0 -120 -147 182 c-82 101 -158 194 -169 208 l-21 26 -41 -84 c-58 -123 -133
-233 -216 -317 l-72 -73 -112 0 c-103 0 -131 7 -101 26 19 12 203 247 261 334
75 114 132 221 157 299 12 35 21 68 21 73 0 4 -97 8 -215 8 -118 0 -215 3
-215 7 0 4 30 38 67 75 l67 68 152 0 152 0 7 51 c4 28 4 136 0 240 l-7 189
-69 0 -69 0 -21 -42 c-59 -117 -135 -178 -219 -178 -46 0 -53 7 -34 35 8 12
45 107 83 211 38 105 80 213 95 241 34 69 94 111 160 112 28 1 28 1 22 -44z
m3416 -72 c3 -54 4 -99 2 -101 -2 -3 -301 -22 -586 -37 l-128 -7 0 -339 0
-339 390 0 391 0 -3 -82 -3 -83 -387 -3 -388 -2 0 -203 c0 -218 -8 -275 -54
-366 -30 -59 -105 -127 -155 -141 -41 -11 -131 -13 -206 -4 -46 6 -58 14 -145
96 l-95 89 188 -7 188 -7 26 24 c57 53 67 95 71 317 l4 202 -395 0 -395 0 -35
83 -36 82 430 3 429 2 0 335 0 335 -24 0 c-38 0 -470 -19 -573 -25 -86 -5 -92
-4 -98 16 -4 11 -27 45 -52 76 -24 30 -43 56 -41 58 2 2 263 22 582 45 318 23
671 50 785 59 113 10 229 19 257 20 l52 1 4 -97z m-2044 -780 l2 -663 -149 0
-149 0 -108 -90 c-60 -49 -113 -89 -119 -89 -5 0 -29 40 -52 89 l-42 90 -61 0
-60 0 0 665 0 665 368 -2 367 -3 3 -662z m729 395 c134 -173 175 -229 172
-232 -17 -15 -124 -86 -130 -86 -4 0 -46 57 -93 128 -48 70 -102 148 -121 173
l-35 46 53 36 c28 20 57 36 63 36 6 1 47 -45 91 -101z m1201 73 l34 -6 -73
-100 c-101 -140 -218 -285 -228 -285 -11 0 -111 78 -111 86 0 4 20 32 44 65
24 32 72 103 107 158 l64 100 65 -5 c36 -4 80 -9 98 -13z"/>
<path d="M1700 2595 c0 -416 3 -515 13 -515 7 0 30 -36 52 -79 l38 -79 98 79
98 79 75 0 76 0 0 515 0 515 -225 0 -225 0 0 -515z"/>
</g>
</svg>
